<svg width="96" height="45" viewBox="0 0 96 45" fill="none" xmlns="http://www.w3.org/2000/svg">
<g clip-path="url(#clip0)">
<path d="M92.6551 45V3.33334H3.34495V45" stroke="#3A75CE" stroke-width="10" stroke-linejoin="round"/>
<path d="M34.453 44.8333C38.979 44.8333 42.6481 41.177 42.6481 36.6667C42.6481 32.1563 38.979 28.5 34.453 28.5C29.9269 28.5 26.2578 32.1563 26.2578 36.6667C26.2578 41.177 29.9269 44.8333 34.453 44.8333Z" fill="#3A75CE" stroke="#3A75CE"/>
<path d="M61.547 44.8333C66.0731 44.8333 69.7422 41.177 69.7422 36.6667C69.7422 32.1563 66.0731 28.5 61.547 28.5C57.021 28.5 53.3519 32.1563 53.3519 36.6667C53.3519 41.177 57.021 44.8333 61.547 44.8333Z" fill="#3A75CE" stroke="#3A75CE"/>
</g>
<defs>
<clipPath id="clip0">
<rect width="96" height="45" fill="white"/>
</clipPath>
</defs>
</svg>
